<?xml version="1.0" encoding="UTF-8"?> <!-- Creator: CorelDRAW X7 --> <svg xmlns="http://www.w3.org/2000/svg" xmlns:xlink="http://www.w3.org/1999/xlink" xml:space="preserve" width="10in" height="4.76896in" version="1.1" style="shape-rendering:geometricPrecision; text-rendering:geometricPrecision; image-rendering:optimizeQuality; fill-rule:evenodd; clip-rule:evenodd" viewBox="0 0 8877 4233"> <defs> <style type="text/css"> <![CDATA[ .fil0 {fill:#235C92} .fil1 {fill:#235C92;fill-rule:nonzero} ]]> </style> </defs> <g id="Layer_x0020_1"> <metadata id="CorelCorpID_0Corel-Layer"></metadata> <g id="_1980199515648"> <path class="fil0" d="M1342 1777c11,-8 25,-15 45,-28 1027,-646 1812,-835 3014,-1016 939,-142 1960,-214 2913,-137 204,17 482,50 685,92 62,13 164,41 215,46 -61,-18 -144,-53 -216,-77 -527,-175 -1113,-323 -1662,-415 -1767,-296 -3405,-203 -4966,675 -242,136 -637,432 -825,666l-66 79c-99,110 -235,329 -291,453 -139,307 -207,571 -183,944 2,58 9,115 20,171 31,174 99,335 197,471 217,314 576,522 984,531 262,12 526,-53 744,-203 324,-223 502,-581 515,-981 2,-57 -1,-118 -9,-181 -7,-64 -18,-126 -35,-186 -41,-163 -110,-321 -199,-430 -106,-131 -236,-249 -400,-330 -145,-79 -307,-129 -480,-144zm850 581c-6,-11 -11,-19 -25,-27 -1,8 -1,15 -3,24 5,6 6,9 9,13 9,-6 9,-7 19,-10zm-668 -422c-14,-13 -36,-19 -51,-21 2,8 5,15 7,23 17,0 31,-1 44,-2zm-114 12c-14,-15 -27,-30 -40,-44 -147,2 -269,4 -401,44 91,27 187,37 272,80 52,-37 102,-64 169,-80zm443 124c-23,55 -47,96 -70,151 23,20 36,43 51,80 124,1 206,25 262,38 -41,-116 -126,-216 -243,-269zm-64 -28c-55,-27 -128,-46 -251,-46 42,48 95,131 131,197 19,-6 43,-5 50,0 20,-43 39,-74 70,-151zm-318 -41c-55,9 -105,19 -154,54 28,18 229,126 276,171 4,-9 10,-12 16,-16 -40,-87 -92,-140 -138,-209zm-231 105c-61,62 -107,157 -102,278 135,-48 274,-72 412,-77 -1,-7 -1,-19 -2,-27 -95,-71 -202,-122 -308,-174zm336 325c-8,-8 -16,-19 -19,-36 -147,5 -270,23 -404,73 49,115 118,205 256,283 52,-93 111,-215 165,-290 1,-17 1,-20 2,-30zm90 56c-23,55 -122,236 -163,304 101,35 203,44 338,18 -14,-80 -53,-197 -128,-317 -15,1 -30,1 -47,-5zm155 -54c-4,9 -17,19 -27,24 43,77 103,201 130,322 99,-33 156,-132 180,-171 -73,-66 -163,-108 -283,-175zm300 -16c-77,-19 -162,-40 -242,-36 29,18 214,127 241,149 4,-34 4,-62 1,-113zm64 24c1,47 3,72 -4,126 64,61 135,127 196,195 -25,-116 -62,-203 -119,-302 -24,-6 -48,-13 -73,-19zm-190 974c-6,77 -52,371 -75,426 206,-142 398,-365 455,-667 -88,117 -247,199 -380,241zm-785 -45c-23,55 -253,488 -281,546 220,96 603,127 872,-24 25,-61 96,-303 91,-450 -237,40 -552,-2 -682,-72zm731 -531c37,159 55,318 53,479 186,-83 277,-127 405,-294 0,-31 1,-63 1,-95 -71,-112 -134,-188 -246,-282 -45,59 -76,116 -213,192zm-473 14c-72,146 -143,292 -215,438 221,81 413,89 651,60 -2,-159 -13,-312 -44,-477 -125,27 -270,30 -392,-21zm-378 -358c-169,80 -312,160 -446,272 119,216 309,365 506,482 75,-147 151,-294 226,-442 -128,-53 -237,-187 -286,-312zm-518 329c-80,71 -258,277 -308,353 35,145 172,485 564,696 -2,-22 220,-404 280,-549 -327,-167 -466,-362 -536,-500zm-104 -552c-154,139 -268,503 -225,772 89,-116 174,-216 281,-308 -45,-109 -83,-312 -56,-464zm700 -192c-157,-55 -260,-68 -376,-65 -76,37 -126,72 -176,113 -99,189 -61,464 -9,554 122,-100 290,-213 465,-276 -16,-96 11,-227 96,-326z"></path> <polygon class="fil0" points="7007,1959 7059,1959 7059,2208 7106,2208 7106,1959 7157,1959 7157,1921 7007,1921 "></polygon> <path class="fil0" d="M7692 134l146 -134c0,0 352,471 1039,833l-113 132c0,0 -301,-30 -962,178l119 -137c0,0 545,-141 617,-142 0,0 -534,-327 -846,-730z"></path> <polygon class="fil1" points="3061,1917 3454,1917 3454,4200 3061,4200 "></polygon> <path class="fil0" d="M4164 1917l-563 2284 391 0 108 -483 455 0 105 483 395 0 -563 -2285 -328 1zm9 1456l305 4 -146 -683 -159 679z"></path> <polygon class="fil0" points="5190,1917 5188,4201 5587,4201 5587,2915 5895,3800 6114,3800 6439,2915 6439,4201 6838,4200 6838,1917 6457,1917 6013,3059 5564,1916 "></polygon> <polygon class="fil0" points="7174,1921 7174,2208 7224,2208 7224,2047 7263,2158 7290,2158 7331,2047 7331,2208 7381,2208 7381,1921 7334,1921 7278,2065 7221,1921 "></polygon> </g> </g> </svg> 